<svg xmlns="http://www.w3.org/2000/svg" viewBox="0 0 1180 610" width="100%" height="100%">
  <defs>
    <style>
      .terminal-title { font-family: monospace; font-size: 14px; fill: #475569; font-weight: bold; }
      .live-badge { font-family: monospace; font-size: 11px; fill: #EF4444; font-weight: bold; }
      @keyframes pulse { 0%, 100% { opacity: 1; } 50% { opacity: 0.3; } }
      .pulsing { animation: pulse 2s infinite; }
      @keyframes morph {
        0%, 25% { transform: translate(0, 0) scale(1); opacity: 0.95; }
        30%, 50% { transform: translate(10px, -5px) scale(0.98); opacity: 0.6; }
        55%, 75% { transform: translate(-10px, 5px) scale(1.02); opacity: 0.7; }
        80%, 100% { transform: translate(0, 0) scale(1); opacity: 0.95; }
      }
      .particles { animation: morph 14s infinite ease-in-out; transform-origin: 175px 320px; }
    </style>
  </defs>

  <!-- Background Card -->
  <rect width="1180" height="610" rx="14" fill="#F8FAFC" stroke="#E2E8F0" stroke-width="2"/>
  
  <!-- Terminal Header Bar -->
  <rect width="1180" height="42" rx="14" fill="#FFFFFF"/>
  <rect y="30" width="1180" height="12" fill="#FFFFFF"/>
  <line x1="0" y1="42" x2="1180" y2="42" stroke="#E2E8F0" stroke-width="1.5"/>
  
  <!-- Window Controls -->
  <circle cx="25" cy="21" r="6" fill="#EF4444"/>
  <circle cx="45" cy="21" r="6" fill="#F59E0B"/>
  <circle cx="65" cy="21" r="6" fill="#10B981"/>
  
  <text x="90" y="26" class="terminal-title">luisv-lima/profile.sh-live</text>
  <circle cx="1060" cy="21" r="4" fill="#EF4444" class="pulsing"/>
  <text x="1072" y="25" class="live-badge pulsing">LIVE</text>
  
  <!-- Left Panel: VISUAL.MAP Frame -->
  <rect x="25" y="65" width="310" height="520" rx="8" fill="#FFFFFF" stroke="#E2E8F0" stroke-width="1.5"/>
  <text x="40" y="95" font-family="monospace" font-size="12" fill="#0891B2" font-weight="bold">VISUAL.MAP // PORTRAIT</text>
  <text x="40" y="115" font-family="monospace" font-size="10" fill="#475569">TRANSITION: GO &lt;/&gt; PYTHON</text>
  
  <!-- Dithered Portrait Points -->
  <g class="particles">
    <path d="M202,224h1.4v1.4h-1.4z M200,225h1.4v1.4h-1.4z M209,225h1.4v1.4h-1.4z M211,226h1.4v1.4h-1.4z M217,226h1.4v1.4h-1.4z M201,227h1.4v1.4h-1.4z M196,228h1.4v1.4h-1.4z M194,229h1.4v1.4h-1.4z M207,229h1.4v1.4h-1.4z M218,229h1.4v1.4h-1.4z M192,230h1.4v1.4h-1.4z M200,230h1.4v1.4h-1.4z M215,231h1.4v1.4h-1.4z M190,232h1.4v1.4h-1.4z M227,232h1.4v1.4h-1.4z M205,233h1.4v1.4h-1.4z M222,233h1.4v1.4h-1.4z M194,234h1.4v1.4h-1.4z M218,234h1.4v1.4h-1.4z M189,235h1.4v1.4h-1.4z M221,235h1.4v1.4h-1.4z M230,235h1.4v1.4h-1.4z M215,236h1.4v1.4h-1.4z M200,237h1.4v1.4h-1.4z M213,237h1.4v1.4h-1.4z M228,237h1.4v1.4h-1.4z M189,238h1.4v1.4h-1.4z M207,238h1.4v1.4h-1.4z M211,239h1.4v1.4h-1.4z M225,239h1.4v1.4h-1.4z M184,240h1.4v1.4h-1.4z M223,240h1.4v1.4h-1.4z M195,241h1.4v1.4h-1.4z M205,241h1.4v1.4h-1.4z M221,241h1.4v1.4h-1.4z M186,242h1.4v1.4h-1.4z M211,242h1.4v1.4h-1.4z M199,243h1.4v1.4h-1.4z M184,244h1.4v1.4h-1.4z M228,244h1.4v1.4h-1.4z M188,245h1.4v1.4h-1.4z M223,245h1.4v1.4h-1.4z M238,245h1.4v1.4h-1.4z M218,246h1.4v1.4h-1.4z M180,247h1.4v1.4h-1.4z M207,248h1.4v1.4h-1.4z M180,249h1.4v1.4h-1.4z M193,249h1.4v1.4h-1.4z M210,249h1.4v1.4h-1.4z M230,249h1.4v1.4h-1.4z M205,250h1.4v1.4h-1.4z M209,250h1.4v1.4h-1.4z M214,250h1.4v1.4h-1.4z M238,250h1.4v1.4h-1.4z M207,251h1.4v1.4h-1.4z M209,251h1.4v1.4h-1.4z M212,251h1.4v1.4h-1.4z M215,251h1.4v1.4h-1.4z M235,251h1.4v1.4h-1.4z M202,252h1.4v1.4h-1.4z M205,252h1.4v1.4h-1.4z M208,252h1.4v1.4h-1.4z M211,252h1.4v1.4h-1.4z M214,252h1.4v1.4h-1.4z M239,252h1.4v1.4h-1.4z M190,253h1.4v1.4h-1.4z M205,253h1.4v1.4h-1.4z M208,253h1.4v1.4h-1.4z M211,253h1.4v1.4h-1.4z M214,253h1.4v1.4h-1.4z M217,253h1.4v1.4h-1.4z M179,254h1.4v1.4h-1.4z M200,254h1.4v1.4h-1.4z M204,254h1.4v1.4h-1.4z M206,254h1.4v1.4h-1.4z M209,254h1.4v1.4h-1.4z M211,254h1.4v1.4h-1.4z M214,254h1.4v1.4h-1.4z M218,254h1.4v1.4h-1.4z M222,254h1.4v1.4h-1.4z M198,255h1.4v1.4h-1.4z M204,255h1.4v1.4h-1.4z M207,255h1.4v1.4h-1.4z M209,255h1.4v1.4h-1.4z M212,255h1.4v1.4h-1.4z M215,255h1.4v1.4h-1.4z M217,255h1.4v1.4h-1.4z M221,255h1.4v1.4h-1.4z M239,255h1.4v1.4h-1.4z M201,256h1.4v1.4h-1.4z M204,256h1.4v1.4h-1.4z M206,256h1.4v1.4h-1.4z M210,256h1.4v1.4h-1.4z M213,256h1.4v1.4h-1.4z M216,256h1.4v1.4h-1.4z M219,256h1.4v1.4h-1.4z M224,256h1.4v1.4h-1.4z M177,257h1.4v1.4h-1.4z M191,257h1.4v1.4h-1.4z M199,257h1.4v1.4h-1.4z M202,257h1.4v1.4h-1.4z M204,257h1.4v1.4h-1.4z M206,257h1.4v1.4h-1.4z M208,257h1.4v1.4h-1.4z M211,257h1.4v1.4h-1.4z M215,257h1.4v1.4h-1.4z M217,257h1.4v1.4h-1.4z M221,257h1.4v1.4h-1.4z M224,257h1.4v1.4h-1.4z M236,257h1.4v1.4h-1.4z M186,258h1.4v1.4h-1.4z M202,258h1.4v1.4h-1.4z M204,258h1.4v1.4h-1.4z M207,258h1.4v1.4h-1.4z M210,258h1.4v1.4h-1.4z M213,258h1.4v1.4h-1.4z M216,258h1.4v1.4h-1.4z M219,258h1.4v1.4h-1.4z M223,258h1.4v1.4h-1.4z M239,258h1.4v1.4h-1.4z M198,259h1.4v1.4h-1.4z M202,259h1.4v1.4h-1.4z M204,259h1.4v1.4h-1.4z M206,259h1.4v1.4h-1.4z M210,259h1.4v1.4h-1.4z M213,259h1.4v1.4h-1.4z M216,259h1.4v1.4h-1.4z M219,259h1.4v1.4h-1.4z M223,259h1.4v1.4h-1.4z M226,259h1.4v1.4h-1.4z M198,260h1.4v1.4h-1.4z M201,260h1.4v1.4h-1.4z M203,260h1.4v1.4h-1.4z M207,260h1.4v1.4h-1.4z M209,260h1.4v1.4h-1.4z M213,260h1.4v1.4h-1.4z M217,260h1.4v1.4h-1.4z M220,260h1.4v1.4h-1.4z M223,260h1.4v1.4h-1.4z M226,260h1.4v1.4h-1.4z M240,260h1.4v1.4h-1.4z M194,261h1.4v1.4h-1.4z M198,261h1.4v1.4h-1.4z M200,261h1.4v1.4h-1.4z M203,261h1.4v1.4h-1.4z M205,261h1.4v1.4h-1.4z M207,261h1.4v1.4h-1.4z M211,261h1.4v1.4h-1.4z M214,261h1.4v1.4h-1.4z M216,261h1.4v1.4h-1.4z M220,261h1.4v1.4h-1.4z M224,261h1.4v1.4h-1.4z M227,261h1.4v1.4h-1.4z M183,262h1.4v1.4h-1.4z M199,262h1.4v1.4h-1.4z M201,262h1.4v1.4h-1.4z M204,262h1.4v1.4h-1.4z M207,262h1.4v1.4h-1.4z M210,262h1.4v1.4h-1.4z M214,262h1.4v1.4h-1.4z M218,262h1.4v1.4h-1.4z M221,262h1.4v1.4h-1.4z M225,262h1.4v1.4h-1.4z M229,262h1.4v1.4h-1.4z M195,263h1.4v1.4h-1.4z M197,263h1.4v1.4h-1.4z M200,263h1.4v1.4h-1.4z M203,263h1.4v1.4h-1.4z M205,263h1.4v1.4h-1.4z M208,263h1.4v1.4h-1.4z M210,263h1.4v1.4h-1.4z M213,263h1.4v1.4h-1.4z M216,263h1.4v1.4h-1.4z M219,263h1.4v1.4h-1.4z M223,263h1.4v1.4h-1.4z M227,263h1.4v1.4h-1.4z M195,264h1.4v1.4h-1.4z M198,264h1.4v1.4h-1.4z M200,264h1.4v1.4h-1.4z M202,264h1.4v1.4h-1.4z M205,264h1.4v1.4h-1.4z M208,264h1.4v1.4h-1.4z M212,264h1.4v1.4h-1.4z M215,264h1.4v1.4h-1.4z M219,264h1.4v1.4h-1.4z M222,264h1.4v1.4h-1.4z M225,264h1.4v1.4h-1.4z M228,264h1.4v1.4h-1.4z M176,265h1.4v1.4h-1.4z M196,265h1.4v1.4h-1.4z M199,265h1.4v1.4h-1.4z M201,265h1.4v1.4h-1.4z M204,265h1.4v1.4h-1.4z M206,265h1.4v1.4h-1.4z M209,265h1.4v1.4h-1.4z M212,265h1.4v1.4h-1.4z M216,265h1.4v1.4h-1.4z M220,265h1.4v1.4h-1.4z M224,265h1.4v1.4h-1.4z M228,265h1.4v1.4h-1.4z M238,265h1.4v1.4h-1.4z M194,266h1.4v1.4h-1.4z M196,266h1.4v1.4h-1.4z M198,266h1.4v1.4h-1.4z M201,266h1.4v1.4h-1.4z M203,266h1.4v1.4h-1.4z M206,266h1.4v1.4h-1.4z M209,266h1.4v1.4h-1.4z M212,266h1.4v1.4h-1.4z M215,266h1.4v1.4h-1.4z M218,266h1.4v1.4h-1.4z M221,266h1.4v1.4h-1.4z M224,266h1.4v1.4h-1.4z M228,266h1.4v1.4h-1.4z M180,267h1.4v1.4h-1.4z M195,267h1.4v1.4h-1.4z M198,267h1.4v1.4h-1.4z M200,267h1.4v1.4h-1.4z M203,267h1.4v1.4h-1.4z M205,267h1.4v1.4h-1.4z M208,267h1.4v1.4h-1.4z M211,267h1.4v1.4h-1.4z M213,267h1.4v1.4h-1.4z M216,267h1.4v1.4h-1.4z M219,267h1.4v1.4h-1.4z M222,267h1.4v1.4h-1.4z M226,267h1.4v1.4h-1.4z M230,267h1.4v1.4h-1.4z M176,268h1.4v1.4h-1.4z M193,268h1.4v1.4h-1.4z M195,268h1.4v1.4h-1.4z M197,268h1.4v1.4h-1.4z M200,268h1.4v1.4h-1.4z M202,268h1.4v1.4h-1.4z M204,268h1.4v1.4h-1.4z M206,268h1.4v1.4h-1.4z M209,268h1.4v1.4h-1.4z M212,268h1.4v1.4h-1.4z M216,268h1.4v1.4h-1.4z M219,268h1.4v1.4h-1.4z M222,268h1.4v1.4h-1.4z M224,268h1.4v1.4h-1.4z M228,268h1.4v1.4h-1.4z M232,268h1.4v1.4h-1.4z M195,269h1.4v1.4h-1.4z M197,269h1.4v1.4h-1.4z M199,269h1.4v1.4h-1.4z M202,269h1.4v1.4h-1.4z M206,269h1.4v1.4h-1.4z M208,269h1.4v1.4h-1.4z M211,269h1.4v1.4h-1.4z M214,269h1.4v1.4h-1.4z M218,269h1.4v1.4h-1.4z M221,269h1.4v1.4h-1.4z M225,269h1.4v1.4h-1.4z M228,269h1.4v1.4h-1.4z M238,269h1.4v1.4h-1.4z M182,270h1.4v1.4h-1.4z M195,270h1.4v1.4h-1.4z M198,270h1.4v1.4h-1.4z M200,270h1.4v1.4h-1.4z M202,270h1.4v1.4h-1.4z M204,270h1.4v1.4h-1.4z M206,270h1.4v1.4h-1.4z M209,270h1.4v1.4h-1.4z M212,270h1.4v1.4h-1.4z M216,270h1.4v1.4h-1.4z M219,270h1.4v1.4h-1.4z M222,270h1.4v1.4h-1.4z M224,270h1.4v1.4h-1.4z M228,270h1.4v1.4h-1.4z M231,270h1.4v1.4h-1.4z M193,271h1.4v1.4h-1.4z M195,271h1.4v1.4h-1.4z M197,271h1.4v1.4h-1.4z M199,271h1.4v1.4h-1.4z M201,271h1.4v1.4h-1.4z M204,271h1.4v1.4h-1.4z M207,271h1.4v1.4h-1.4z M209,271h1.4v1.4h-1.4z M212,271h1.4v1.4h-1.4z M215,271h1.4v1.4h-1.4z M218,271h1.4v1.4h-1.4z M221,271h1.4v1.4h-1.4z M225,271h1.4v1.4h-1.4z M228,271h1.4v1.4h-1.4z M232,271h1.4v1.4h-1.4z M179,272h1.4v1.4h-1.4z M194,272h1.4v1.4h-1.4z M197,272h1.4v1.4h-1.4z M199,272h1.4v1.4h-1.4z M202,272h1.4v1.4h-1.4z M204,272h1.4v1.4h-1.4z M206,272h1.4v1.4h-1.4z M210,272h1.4v1.4h-1.4z M213,272h1.4v1.4h-1.4z M217,272h1.4v1.4h-1.4z M221,272h1.4v1.4h-1.4z M225,272h1.4v1.4h-1.4z M228,272h1.4v1.4h-1.4z M231,272h1.4v1.4h-1.4z M192,273h1.4v1.4h-1.4z M194,273h1.4v1.4h-1.4z M196,273h1.4v1.4h-1.4z M199,273h1.4v1.4h-1.4z M201,273h1.4v1.4h-1.4z M204,273h1.4v1.4h-1.4z M206,273h1.4v1.4h-1.4z M208,273h1.4v1.4h-1.4z M210,273h1.4v1.4h-1.4z M213,273h1.4v1.4h-1.4z M216,273h1.4v1.4h-1.4z M219,273h1.4v1.4h-1.4z M222,273h1.4v1.4h-1.4z M226,273h1.4v1.4h-1.4z M229,273h1.4v1.4h-1.4z M232,273h1.4v1.4h-1.4z M182,274h1.4v1.4h-1.4z M194,274h1.4v1.4h-1.4z M196,274h1.4v1.4h-1.4z M202,274h1.4v1.4h-1.4z M208,274h1.4v1.4h-1.4z M211,274h1.4v1.4h-1.4z M216,274h1.4v1.4h-1.4z M220,274h1.4v1.4h-1.4z M223,274h1.4v1.4h-1.4z M227,274h1.4v1.4h-1.4z M230,274h1.4v1.4h-1.4z M237,274h1.4v1.4h-1.4z M191,275h1.4v1.4h-1.4z M193,275h1.4v1.4h-1.4z M195,275h1.4v1.4h-1.4z M212,275h1.4v1.4h-1.4z M216,275h1.4v1.4h-1.4z M219,275h1.4v1.4h-1.4z M223,275h1.4v1.4h-1.4z M226,275h1.4v1.4h-1.4z M229,275h1.4v1.4h-1.4z M231,275h1.4v1.4h-1.4z M178,276h1.4v1.4h-1.4z M191,276h1.4v1.4h-1.4z M193,276h1.4v1.4h-1.4z M215,276h1.4v1.4h-1.4z M219,276h1.4v1.4h-1.4z M223,276h1.4v1.4h-1.4z M227,276h1.4v1.4h-1.4z M230,276h1.4v1.4h-1.4z M238,276h1.4v1.4h-1.4z M190,277h1.4v1.4h-1.4z M194,277h1.4v1.4h-1.4z M214,277h1.4v1.4h-1.4z M218,277h1.4v1.4h-1.4z M222,277h1.4v1.4h-1.4z M229,277h1.4v1.4h-1.4z M232,277h1.4v1.4h-1.4z M183,278h1.4v1.4h-1.4z M190,278h1.4v1.4h-1.4z M214,278h1.4v1.4h-1.4z M218,278h1.4v1.4h-1.4z M233,278h1.4v1.4h-1.4z M177,279h1.4v1.4h-1.4z M188,279h1.4v1.4h-1.4z M190,279h1.4v1.4h-1.4z M193,279h1.4v1.4h-1.4z M197,279h1.4v1.4h-1.4z M200,279h1.4v1.4h-1.4z M213,279h1.4v1.4h-1.4z M216,279h1.4v1.4h-1.4z M188,280h1.4v1.4h-1.4z M193,280h1.4v1.4h-1.4z M196,280h1.4v1.4h-1.4z M199,280h1.4v1.4h-1.4z M205,280h1.4v1.4h-1.4z M216,280h1.4v1.4h-1.4z M220,280h1.4v1.4h-1.4z M187,281h1.4v1.4h-1.4z M189,281h1.4v1.4h-1.4z M192,281h1.4v1.4h-1.4z M196,281h1.4v1.4h-1.4z M198,281h1.4v1.4h-1.4z M200,281h1.4v1.4h-1.4z M202,281h1.4v1.4h-1.4z M207,281h1.4v1.4h-1.4z M211,281h1.4v1.4h-1.4z M215,281h1.4v1.4h-1.4z M218,281h1.4v1.4h-1.4z M179,282h1.4v1.4h-1.4z M189,282h1.4v1.4h-1.4z M192,282h1.4v1.4h-1.4z M195,282h1.4v1.4h-1.4z M200,282h1.4v1.4h-1.4z M205,282h1.4v1.4h-1.4z M214,282h1.4v1.4h-1.4z M217,282h1.4v1.4h-1.4z M229,282h1.4v1.4h-1.4z M176,283h1.4v1.4h-1.4z M188,283h1.4v1.4h-1.4z M191,283h1.4v1.4h-1.4z M194,283h1.4v1.4h-1.4z M198,283h1.4v1.4h-1.4z M201,283h1.4v1.4h-1.4z M206,283h1.4v1.4h-1.4z M210,283h1.4v1.4h-1.4z M214,283h1.4v1.4h-1.4z M216,283h1.4v1.4h-1.4z M221,283h1.4v1.4h-1.4z M227,283h1.4v1.4h-1.4z M232,283h1.4v1.4h-1.4z M187,284h1.4v1.4h-1.4z M189,284h1.4v1.4h-1.4z M192,284h1.4v1.4h-1.4z M196,284h1.4v1.4h-1.4z M198,284h1.4v1.4h-1.4z M200,284h1.4v1.4h-1.4z M203,284h1.4v1.4h-1.4z M210,284h1.4v1.4h-1.4z M213,284h1.4v1.4h-1.4z M215,284h1.4v1.4h-1.4z M217,284h1.4v1.4h-1.4z M225,284h1.4v1.4h-1.4z M228,284h1.4v1.4h-1.4z M231,284h1.4v1.4h-1.4z M177,285h1.4v1.4h-1.4z M188,285h1.4v1.4h-1.4z M191,285h1.4v1.4h-1.4z M196,285h1.4v1.4h-1.4z M205,285h1.4v1.4h-1.4z M211,285h1.4v1.4h-1.4z M214,285h1.4v1.4h-1.4z M216,285h1.4v1.4h-1.4z M222,285h1.4v1.4h-1.4z M229,285h1.4v1.4h-1.4z M233,285h1.4v1.4h-1.4z M236,285h1.4v1.4h-1.4z M186,286h1.4v1.4h-1.4z M188,286h1.4v1.4h-1.4z M191,286h1.4v1.4h-1.4z M195,286h1.4v1.4h-1.4z M209,286h1.4v1.4h-1.4z M213,286h1.4v1.4h-1.4z M216,286h1.4v1.4h-1.4z M220,286h1.4v1.4h-1.4z M227,286h1.4v1.4h-1.4z M231,286h1.4v1.4h-1.4z M235,286h1.4v1.4h-1.4z M186,287h1.4v1.4h-1.4z M188,287h1.4v1.4h-1.4z M191,287h1.4v1.4h-1.4z M206,287h1.4v1.4h-1.4z M212,287h1.4v1.4h-1.4z M214,287h1.4v1.4h-1.4z M216,287h1.4v1.4h-1.4z M218,287h1.4v1.4h-1.4z M228,287h1.4v1.4h-1.4z M231,287h1.4v1.4h-1.4z M235,287h1.4v1.4h-1.4z M187,288h1.4v1.4h-1.4z M190,288h1.4v1.4h-1.4z M203,288h1.4v1.4h-1.4z M210,288h1.4v1.4h-1.4z M214,288h1.4v1.4h-1.4z M216,288h1.4v1.4h-1.4z M222,288h1.4v1.4h-1.4z M234,288h1.4v1.4h-1.4z M186,289h1.4v1.4h-1.4z M188,289h1.4v1.4h-1.4z M191,289h1.4v1.4h-1.4z M203,289h1.4v1.4h-1.4z M209,289h1.4v1.4h-1.4z M213,289h1.4v1.4h-1.4z M216,289h1.4v1.4h-1.4z M218,289h1.4v1.4h-1.4z M233,289h1.4v1.4h-1.4z M235,289h1.4v1.4h-1.4z M186,290h1.4v1.4h-1.4z M189,290h1.4v1.4h-1.4z M192,290h1.4v1.4h-1.4z M197,290h1.4v1.4h-1.4z M209,290h1.4v1.4h-1.4z M212,290h1.4v1.4h-1.4z M215,290h1.4v1.4h-1.4z M218,290h1.4v1.4h-1.4z M234,290h1.4v1.4h-1.4z M187,291h1.4v1.4h-1.4z M189,291h1.4v1.4h-1.4z M193,291h1.4v1.4h-1.4z M198,291h1.4v1.4h-1.4z M205,291h1.4v1.4h-1.4z M209,291h1.4v1.4h-1.4z M213,291h1.4v1.4h-1.4z M215,291h1.4v1.4h-1.4z M217,291h1.4v1.4h-1.4z M230,291h1.4v1.4h-1.4z M235,291h1.4v1.4h-1.4z M186,292h1.4v1.4h-1.4z M188,292h1.4v1.4h-1.4z M191,292h1.4v1.4h-1.4z M193,292h1.4v1.4h-1.4z M196,292h1.4v1.4h-1.4z M199,292h1.4v1.4h-1.4z M207,292h1.4v1.4h-1.4z M210,292h1.4v1.4h-1.4z M214,292h1.4v1.4h-1.4z M216,292h1.4v1.4h-1.4z M218,292h1.4v1.4h-1.4z M220,292h1.4v1.4h-1.4z M234,292h1.4v1.4h-1.4z M186,293h1.4v1.4h-1.4z M188,293h1.4v1.4h-1.4z M190,293h1.4v1.4h-1.4z M194,293h1.4v1.4h-1.4z M198,293h1.4v1.4h-1.4z M204,293h1.4v1.4h-1.4z M210,293h1.4v1.4h-1.4z M213,293h1.4v1.4h-1.4z M216,293h1.4v1.4h-1.4z M220,293h1.4v1.4h-1.4z M225,293h1.4v1.4h-1.4z M231,293h1.4v1.4h-1.4z M177,294h1.4v1.4h-1.4z M186,294h1.4v1.4h-1.4z M189,294h1.4v1.4h-1.4z M191,294h1.4v1.4h-1.4z M193,294h1.4v1.4h-1.4z M197,294h1.4v1.4h-1.4z M205,294h1.4v1.4h-1.4z M209,294h1.4v1.4h-1.4z M211,294h1.4v1.4h-1.4z M214,294h1.4v1.4h-1.4z M217,294h1.4v1.4h-1.4z M219,294h1.4v1.4h-1.4z M234,294h1.4v1.4h-1.4z M176,295h1.4v1.4h-1.4z M185,295h1.4v1.4h-1.4z M187,295h1.4v1.4h-1.4z M190,295h1.4v1.4h-1.4z M193,295h1.4v1.4h-1.4z M195,295h1.4v1.4h-1.4z M200,295h1.4v1.4h-1.4z M204,295h1.4v1.4h-1.4z M207,295h1.4v1.4h-1.4z M210,295h1.4v1.4h-1.4z M214,295h1.4v1.4h-1.4z M216,295h1.4v1.4h-1.4z M218,295h1.4v1.4h-1.4z M222,295h1.4v1.4h-1.4z M227,295h1.4v1.4h-1.4z M231,295h1.4v1.4h-1.4z M233,295h1.4v1.4h-1.4z M175,296h1.4v1.4h-1.4z M177,296h1.4v1.4h-1.4z M186,296h1.4v1.4h-1.4z M189,296h1.4v1.4h-1.4z M191,296h1.4v1.4h-1.4z M195,296h1.4v1.4h-1.4z M198,296h1.4v1.4h-1.4z M202,296h1.4v1.4h-1.4z M206,296h1.4v1.4h-1.4z M209,296h1.4v1.4h-1.4z M211,296h1.4v1.4h-1.4z M213,296h1.4v1.4h-1.4z M217,296h1.4v1.4h-1.4z M219,296h1.4v1.4h-1.4z M229,296h1.4v1.4h-1.4z M235,296h1.4v1.4h-1.4z M177,297h1.4v1.4h-1.4z M179,297h1.4v1.4h-1.4z M186,297h1.4v1.4h-1.4z M188,297h1.4v1.4h-1.4z M191,297h1.4v1.4h-1.4z M193,297h1.4v1.4h-1.4z M196,297h1.4v1.4h-1.4z M198,297h1.4v1.4h-1.4z M200,297h1.4v1.4h-1.4z M204,297h1.4v1.4h-1.4z M207,297h1.4v1.4h-1.4z M210,297h1.4v1.4h-1.4z M214,297h1.4v1.4h-1.4z M216,297h1.4v1.4h-1.4z M219,297h1.4v1.4h-1.4z M223,297h1.4v1.4h-1.4z M227,297h1.4v1.4h-1.4z M232,297h1.4v1.4h-1.4z M234,297h1.4v1.4h-1.4z M178,298h1.4v1.4h-1.4z M185,298h1.4v1.4h-1.4z M187,298h1.4v1.4h-1.4z M190,298h1.4v1.4h-1.4z M194,298h1.4v1.4h-1.4z M196,298h1.4v1.4h-1.4z M200,298h1.4v1.4h-1.4z M203,298h1.4v1.4h-1.4z M206,298h1.4v1.4h-1.4z M208,298h1.4v1.4h-1.4z M210,298h1.4v1.4h-1.4z M213,298h1.4v1.4h-1.4z M216,298h1.4v1.4h-1.4z M219,298h1.4v1.4h-1.4z M224,298h1.4v1.4h-1.4z M229,298h1.4v1.4h-1.4z M234,298h1.4v1.4h-1.4z M175,299h1.4v1.4h-1.4z M179,299h1.4v1.4h-1.4z M186,299h1.4v1.4h-1.4z M189,299h1.4v1.4h-1.4z M191,299h1.4v1.4h-1.4z M193,299h1.4v1.4h-1.4z M196,299h1.4v1.4h-1.4z M199,299h1.4v1.4h-1.4z M203,299h1.4v1.4h-1.4z M205,299h1.4v1.4h-1.4z M209,299h1.4v1.4h-1.4z M212,299h1.4v1.4h-1.4z M216,299h1.4v1.4h-1.4z M218,299h1.4v1.4h-1.4z M221,299h1.4v1.4h-1.4z M225,299h1.4v1.4h-1.4z M229,299h1.4v1.4h-1.4z M232,299h1.4v1.4h-1.4z M175,300h1.4v1.4h-1.4z M178,300h1.4v1.4h-1.4z M180,300h1.4v1.4h-1.4z M185,300h1.4v1.4h-1.4z M187,300h1.4v1.4h-1.4z M190,300h1.4v1.4h-1.4z M193,300h1.4v1.4h-1.4z M195,300h1.4v1.4h-1.4z M198,300h1.4v1.4h-1.4z M201,300h1.4v1.4h-1.4z M204,300h1.4v1.4h-1.4z M207,300h1.4v1.4h-1.4z M209,300h1.4v1.4h-1.4z M212,300h1.4v1.4h-1.4z M215,300h1.4v1.4h-1.4z M218,300h1.4v1.4h-1.4z M220,300h1.4v1.4h-1.4z M225,300h1.4v1.4h-1.4z M230,300h1.4v1.4h-1.4z M233,300h1.4v1.4h-1.4z M235,300h1.4v1.4h-1.4z M177,301h1.4v1.4h-1.4z M180,301h1.4v1.4h-1.4z M187,301h1.4v1.4h-1.4z M189,301h1.4v1.4h-1.4z M192,301h1.4v1.4h-1.4z M195,301h1.4v1.4h-1.4z M198,301h1.4v1.4h-1.4z M202,301h1.4v1.4h-1.4z M205,301h1.4v1.4h-1.4z M207,301h1.4v1.4h-1.4z M211,301h1.4v1.4h-1.4z M215,301h1.4v1.4h-1.4z M217,301h1.4v1.4h-1.4z M220,301h1.4v1.4h-1.4z M223,301h1.4v1.4h-1.4z M228,301h1.4v1.4h-1.4z M233,301h1.4v1.4h-1.4z M175,302h1.4v1.4h-1.4z M178,302h1.4v1.4h-1.4z M181,302h1.4v1.4h-1.4z M186,302h1.4v1.4h-1.4z M189,302h1.4v1.4h-1.4z M192,302h1.4v1.4h-1.4z M194,302h1.4v1.4h-1.4z M196,302h1.4v1.4h-1.4z M199,302h1.4v1.4h-1.4z M203,302h1.4v1.4h-1.4z M206,302h1.4v1.4h-1.4z M208,302h1.4v1.4h-1.4z M211,302h1.4v1.4h-1.4z M214,302h1.4v1.4h-1.4z M217,302h1.4v1.4h-1.4z M220,302h1.4v1.4h-1.4z M224,302h1.4v1.4h-1.4z M228,302h1.4v1.4h-1.4z M232,302h1.4v1.4h-1.4z M235,302h1.4v1.4h-1.4z M176,303h1.4v1.4h-1.4z M178,303h1.4v1.4h-1.4z M181,303h1.4v1.4h-1.4z M186,303h1.4v1.4h-1.4z M189,303h1.4v1.4h-1.4z M192,303h1.4v1.4h-1.4z M196,303h1.4v1.4h-1.4z M199,303h1.4v1.4h-1.4z M201,303h1.4v1.4h-1.4z M205,303h1.4v1.4h-1.4z M209,303h1.4v1.4h-1.4z M212,303h1.4v1.4h-1.4z M215,303h1.4v1.4h-1.4z M217,303h1.4v1.4h-1.4z M220,303h1.4v1.4h-1.4z M225,303h1.4v1.4h-1.4z M230,303h1.4v1.4h-1.4z M233,303h1.4v1.4h-1.4z M235,303h1.4v1.4h-1.4z M177,304h1.4v1.4h-1.4z M179,304h1.4v1.4h-1.4z M185,304h1.4v1.4h-1.4z M188,304h1.4v1.4h-1.4z M190,304h1.4v1.4h-1.4z M193,304h1.4v1.4h-1.4z M197,304h1.4v1.4h-1.4z M201,304h1.4v1.4h-1.4z M203,304h1.4v1.4h-1.4z M205,304h1.4v1.4h-1.4z M207,304h1.4v1.4h-1.4z M210,304h1.4v1.4h-1.4z M212,304h1.4v1.4h-1.4z M214,304h1.4v1.4h-1.4z M218,304h1.4v1.4h-1.4z M223,304h1.4v1.4h-1.4z M227,304h1.4v1.4h-1.4z M231,304h1.4v1.4h-1.4z M234,304h1.4v1.4h-1.4z M175,305h1.4v1.4h-1.4z M177,305h1.4v1.4h-1.4z M181,305h1.4v1.4h-1.4z M186,305h1.4v1.4h-1.4z M190,305h1.4v1.4h-1.4z M193,305h1.4v1.4h-1.4z M196,305h1.4v1.4h-1.4z M199,305h1.4v1.4h-1.4z M202,305h1.4v1.4h-1.4z M207,305h1.4v1.4h-1.4z M210,305h1.4v1.4h-1.4z M213,305h1.4v1.4h-1.4z M216,305h1.4v1.4h-1.4z M220,305h1.4v1.4h-1.4z M224,305h1.4v1.4h-1.4z M228,305h1.4v1.4h-1.4z M232,305h1.4v1.4h-1.4z M176,306h1.4v1.4h-1.4z M178,306h1.4v1.4h-1.4z M184,306h1.4v1.4h-1.4z M187,306h1.4v1.4h-1.4z M191,306h1.4v1.4h-1.4z M195,306h1.4v1.4h-1.4z M197,306h1.4v1.4h-1.4z M201,306h1.4v1.4h-1.4z M203,306h1.4v1.4h-1.4z M206,306h1.4v1.4h-1.4z M209,306h1.4v1.4h-1.4z M211,306h1.4v1.4h-1.4z M214,306h1.4v1.4h-1.4z M218,306h1.4v1.4h-1.4z M224,306h1.4v1.4h-1.4z M228,306h1.4v1.4h-1.4z M232,306h1.4v1.4h-1.4z M235,306h1.4v1.4h-1.4z M176,307h1.4v1.4h-1.4z M181,307h1.4v1.4h-1.4z M185,307h1.4v1.4h-1.4z M188,307h1.4v1.4h-1.4z M191,307h1.4v1.4h-1.4z M194,307h1.4v1.4h-1.4z M198,307h1.4v1.4h-1.4z M200,307h1.4v1.4h-1.4z M204,307h1.4v1.4h-1.4z M207,307h1.4v1.4h-1.4z M210,307h1.4v1.4h-1.4z M213,307h1.4v1.4h-1.4z M219,307h1.4v1.4h-1.4z M225,307h1.4v1.4h-1.4z M229,307h1.4v1.4h-1.4z M233,307h1.4v1.4h-1.4z M235,307h1.4v1.4h-1.4z M177,308h1.4v1.4h-1.4z M181,308h1.4v1.4h-1.4z M185,308h1.4v1.4h-1.4z M190,308h1.4v1.4h-1.4z M193,308h1.4v1.4h-1.4z M196,308h1.4v1.4h-1.4z M199,308h1.4v1.4h-1.4z M202,308h1.4v1.4h-1.4z M205,308h1.4v1.4h-1.4z M208,308h1.4v1.4h-1.4z M218,308h1.4v1.4h-1.4z M225,308h1.4v1.4h-1.4z M228,308h1.4v1.4h-1.4z M231,308h1.4v1.4h-1.4z M235,308h1.4v1.4h-1.4z M176,309h1.4v1.4h-1.4z M181,309h1.4v1.4h-1.4z M186,309h1.4v1.4h-1.4z M189,309h1.4v1.4h-1.4z M193,309h1.4v1.4h-1.4z M197,309h1.4v1.4h-1.4z M200,309h1.4v1.4h-1.4z M203,309h1.4v1.4h-1.4z M206,309h1.4v1.4h-1.4z M209,309h1.4v1.4h-1.4z M226,309h1.4v1.4h-1.4z M230,309h1.4v1.4h-1.4z M234,309h1.4v1.4h-1.4z M177,310h1.4v1.4h-1.4z M180,310h1.4v1.4h-1.4z M182,310h1.4v1.4h-1.4z M187,310h1.4v1.4h-1.4z M190,310h1.4v1.4h-1.4z M194,310h1.4v1.4h-1.4z M197,310h1.4v1.4h-1.4z M201,310h1.4v1.4h-1.4z M204,310h1.4v1.4h-1.4z M208,310h1.4v1.4h-1.4z M211,310h1.4v1.4h-1.4z M225,310h1.4v1.4h-1.4z M229,310h1.4v1.4h-1.4z M233,310h1.4v1.4h-1.4z M235,310h1.4v1.4h-1.4z M177,311h1.4v1.4h-1.4z M181,311h1.4v1.4h-1.4z M186,311h1.4v1.4h-1.4z M190,311h1.4v1.4h-1.4z M194,311h1.4v1.4h-1.4z M197,311h1.4v1.4h-1.4z M199,311h1.4v1.4h-1.4z M202,311h1.4v1.4h-1.4z M205,311h1.4v1.4h-1.4z M207,311h1.4v1.4h-1.4z M215,311h1.4v1.4h-1.4z M217,311h1.4v1.4h-1.4z M226,311h1.4v1.4h-1.4z M230,311h1.4v1.4h-1.4z M234,311h1.4v1.4h-1.4z M177,312h1.4v1.4h-1.4z M180,312h1.4v1.4h-1.4z M182,312h1.4v1.4h-1.4z M187,312h1.4v1.4h-1.4z M191,312h1.4v1.4h-1.4z M195,312h1.4v1.4h-1.4z M199,312h1.4v1.4h-1.4z M201,312h1.4v1.4h-1.4z M204,312h1.4v1.4h-1.4z M208,312h1.4v1.4h-1.4z M213,312h1.4v1.4h-1.4z M224,312h1.4v1.4h-1.4z M228,312h1.4v1.4h-1.4z M232,312h1.4v1.4h-1.4z M176,313h1.4v1.4h-1.4z M179,313h1.4v1.4h-1.4z M182,313h1.4v1.4h-1.4z M188,313h1.4v1.4h-1.4z M190,313h1.4v1.4h-1.4z M194,313h1.4v1.4h-1.4z M197,313h1.4v1.4h-1.4z M200,313h1.4v1.4h-1.4z M204,313h1.4v1.4h-1.4z M207,313h1.4v1.4h-1.4z M209,313h1.4v1.4h-1.4z M215,313h1.4v1.4h-1.4z M219,313h1.4v1.4h-1.4z M225,313h1.4v1.4h-1.4z M229,313h1.4v1.4h-1.4z M233,313h1.4v1.4h-1.4z M176,314h1.4v1.4h-1.4z M179,314h1.4v1.4h-1.4z M181,314h1.4v1.4h-1.4z M183,314h1.4v1.4h-1.4z M187,314h1.4v1.4h-1.4z M191,314h1.4v1.4h-1.4z M195,314h1.4v1.4h-1.4z M199,314h1.4v1.4h-1.4z M201,314h1.4v1.4h-1.4z M203,314h1.4v1.4h-1.4z M206,314h1.4v1.4h-1.4z M209,314h1.4v1.4h-1.4z M212,314h1.4v1.4h-1.4z M217,314h1.4v1.4h-1.4z M225,314h1.4v1.4h-1.4z M229,314h1.4v1.4h-1.4z M233,314h1.4v1.4h-1.4z M177,315h1.4v1.4h-1.4z M179,315h1.4v1.4h-1.4z M183,315h1.4v1.4h-1.4z M189,315h1.4v1.4h-1.4z M192,315h1.4v1.4h-1.4z M196,315h1.4v1.4h-1.4z M198,315h1.4v1.4h-1.4z M202,315h1.4v1.4h-1.4z M205,315h1.4v1.4h-1.4z M207,315h1.4v1.4h-1.4z M210,315h1.4v1.4h-1.4z M218,315h1.4v1.4h-1.4z M224,315h1.4v1.4h-1.4z M228,315h1.4v1.4h-1.4z M232,315h1.4v1.4h-1.4z M177,316h1.4v1.4h-1.4z M179,316h1.4v1.4h-1.4z M182,316h1.4v1.4h-1.4z M188,316h1.4v1.4h-1.4z M192,316h1.4v1.4h-1.4z M196,316h1.4v1.4h-1.4z M199,316h1.4v1.4h-1.4z M201,316h1.4v1.4h-1.4z M204,316h1.4v1.4h-1.4z M207,316h1.4v1.4h-1.4z M209,316h1.4v1.4h-1.4z M212,316h1.4v1.4h-1.4z M218,316h1.4v1.4h-1.4z M226,316h1.4v1.4h-1.4z M230,316h1.4v1.4h-1.4z M234,316h1.4v1.4h-1.4z M179,317h1.4v1.4h-1.4z M181,317h1.4v1.4h-1.4z M183,317h1.4v1.4h-1.4z M189,317h1.4v1.4h-1.4z M193,317h1.4v1.4h-1.4z M197,317h1.4v1.4h-1.4z M201,317h1.4v1.4h-1.4z M204,317h1.4v1.4h-1.4z M206,317h1.4v1.4h-1.4z M209,317h1.4v1.4h-1.4z M218,317h1.4v1.4h-1.4z M225,317h1.4v1.4h-1.4z M229,317h1.4v1.4h-1.4z M233,317h1.4v1.4h-1.4z M177,318h1.4v1.4h-1.4z M179,318h1.4v1.4h-1.4z M181,318h1.4v1.4h-1.4z M188,318h1.4v1.4h-1.4z M192,318h1.4v1.4h-1.4z M195,318h1.4v1.4h-1.4z M198,318h1.4v1.4h-1.4z M201,318h1.4v1.4h-1.4z M204,318h1.4v1.4h-1.4z M207,318h1.4v1.4h-1.4z M209,318h1.4v1.4h-1.4z M219,318h1.4v1.4h-1.4z M226,318h1.4v1.4h-1.4z M230,318h1.4v1.4h-1.4z M234,318h1.4v1.4h-1.4z M178,319h1.4v1.4h-1.4z M181,319h1.4v1.4h-1.4z M188,319h1.4v1.4h-1.4z M191,319h1.4v1.4h-1.4z M195,319h1.4v1.4h-1.4z M198,319h1.4v1.4h-1.4z M201,319h1.4v1.4h-1.4z M203,319h1.4v1.4h-1.4z M205,319h1.4v1.4h-1.4z M208,319h1.4v1.4h-1.4z M215,319h1.4v1.4h-1.4z M219,319h1.4v1.4h-1.4z M227,319h1.4v1.4h-1.4z M231,319h1.4v1.4h-1.4z M177,320h1.4v1.4h-1.4z M179,320h1.4v1.4h-1.4z M181,320h1.4v1.4h-1.4z M183,320h1.4v1.4h-1.4z M190,320h1.4v1.4h-1.4z M194,320h1.4v1.4h-1.4z M197,320h1.4v1.4h-1.4z M200,320h1.4v1.4h-1.4z M203,320h1.4v1.4h-1.4z M207,320h1.4v1.4h-1.4z M214,320h1.4v1.4h-1.4z M216,320h1.4v1.4h-1.4z M220,320h1.4v1.4h-1.4z M226,320h1.4v1.4h-1.4z M229,320h1.4v1.4h-1.4z M233,320h1.4v1.4h-1.4z M178,321h1.4v1.4h-1.4z M180,321h1.4v1.4h-1.4z M182,321h1.4v1.4h-1.4z M189,321h1.4v1.4h-1.4z M192,321h1.4v1.4h-1.4z M195,321h1.4v1.4h-1.4z M198,321h1.4v1.4h-1.4z M201,321h1.4v1.4h-1.4z M203,321h1.4v1.4h-1.4z M210,321h1.4v1.4h-1.4z M212,321h1.4v1.4h-1.4z M216,321h1.4v1.4h-1.4z M218,321h1.4v1.4h-1.4z M221,321h1.4v1.4h-1.4z M229,321h1.4v1.4h-1.4z M232,321h1.4v1.4h-1.4z M178,322h1.4v1.4h-1.4z M180,322h1.4v1.4h-1.4z M182,322h1.4v1.4h-1.4z M188,322h1.4v1.4h-1.4z M191,322h1.4v1.4h-1.4z M195,322h1.4v1.4h-1.4z M198,322h1.4v1.4h-1.4z M200,322h1.4v1.4h-1.4z M203,322h1.4v1.4h-1.4z M209,322h1.4v1.4h-1.4z M213,322h1.4v1.4h-1.4z M222,322h1.4v1.4h-1.4z M227,322h1.4v1.4h-1.4z M230,322h1.4v1.4h-1.4z M233,322h1.4v1.4h-1.4z M179,323h1.4v1.4h-1.4z M181,323h1.4v1.4h-1.4z M191,323h1.4v1.4h-1.4z M194,323h1.4v1.4h-1.4z M197,323h1.4v1.4h-1.4z M201,323h1.4v1.4h-1.4z M206,323h1.4v1.4h-1.4z M209,323h1.4v1.4h-1.4z M212,323h1.4v1.4h-1.4z M216,323h1.4v1.4h-1.4z M221,323h1.4v1.4h-1.4z M229,323h1.4v1.4h-1.4z M233,323h1.4v1.4h-1.4z M180,324h1.4v1.4h-1.4z M186,324h1.4v1.4h-1.4z M190,324h1.4v1.4h-1.4z M193,324h1.4v1.4h-1.4z M197,324h1.4v1.4h-1.4z M199,324h1.4v1.4h-1.4z M207,324h1.4v1.4h-1.4z M210,324h1.4v1.4h-1.4z M217,324h1.4v1.4h-1.4z M225,324h1.4v1.4h-1.4z M231,324h1.4v1.4h-1.4z M182,325h1.4v1.4h-1.4z M192,325h1.4v1.4h-1.4z M195,325h1.4v1.4h-1.4z M198,325h1.4v1.4h-1.4z M201,325h1.4v1.4h-1.4z M205,325h1.4v1.4h-1.4z M208,325h1.4v1.4h-1.4z M219,325h1.4v1.4h-1.4z M225,325h1.4v1.4h-1.4z M232,325h1.4v1.4h-1.4z M152,326h1.4v1.4h-1.4z M188,326h1.4v1.4h-1.4z M194,326h1.4v1.4h-1.4z M197,326h1.4v1.4h-1.4z M199,326h1.4v1.4h-1.4z M205,326h1.4v1.4h-1.4z M217,326h1.4v1.4h-1.4z M226,326h1.4v1.4h-1.4z M231,326h1.4v1.4h-1.4z M182,327h1.4v1.4h-1.4z M189,327h1.4v1.4h-1.4z M195,327h1.4v1.4h-1.4z M199,327h1.4v1.4h-1.4z M202,327h1.4v1.4h-1.4z M227,327h1.4v1.4h-1.4z M231,327h1.4v1.4h-1.4z M151,328h1.4v1.4h-1.4z M181,328h1.4v1.4h-1.4z M184,328h1.4v1.4h-1.4z M194,328h1.4v1.4h-1.4z M197,328h1.4v1.4h-1.4z M199,328h1.4v1.4h-1.4z M211,328h1.4v1.4h-1.4z M215,328h1.4v1.4h-1.4z M231,328h1.4v1.4h-1.4z M183,329h1.4v1.4h-1.4z M191,329h1.4v1.4h-1.4z M197,329h1.4v1.4h-1.4z M200,329h1.4v1.4h-1.4z M209,329h1.4v1.4h-1.4z M212,329h1.4v1.4h-1.4z M216,329h1.4v1.4h-1.4z M220,329h1.4v1.4h-1.4z M226,329h1.4v1.4h-1.4z M231,329h1.4v1.4h-1.4z M151,330h1.4v1.4h-1.4z M181,330h1.4v1.4h-1.4z M184,330h1.4v1.4h-1.4z M190,330h1.4v1.4h-1.4z M197,330h1.4v1.4h-1.4z M199,330h1.4v1.4h-1.4z M203,330h1.4v1.4h-1.4z M209,330h1.4v1.4h-1.4z M212,330h1.4v1.4h-1.4z M214,330h1.4v1.4h-1.4z M217,330h1.4v1.4h-1.4z M221,330h1.4v1.4h-1.4z M229,330h1.4v1.4h-1.4z M156,331h1.4v1.4h-1.4z M183,331h1.4v1.4h-1.4z M189,331h1.4v1.4h-1.4z M195,331h1.4v1.4h-1.4z M200,331h1.4v1.4h-1.4z M204,331h1.4v1.4h-1.4z M206,331h1.4v1.4h-1.4z M210,331h1.4v1.4h-1.4z M215,331h1.4v1.4h-1.4z M219,331h1.4v1.4h-1.4z M222,331h1.4v1.4h-1.4z M228,331h1.4v1.4h-1.4z M150,332h1.4v1.4h-1.4z M165,332h1.4v1.4h-1.4z M181,332h1.4v1.4h-1.4z M183,332h1.4v1.4h-1.4z M189,332h1.4v1.4h-1.4z M197,332h1.4v1.4h-1.4z M202,332h1.4v1.4h-1.4z M206,332h1.4v1.4h-1.4z M208,332h1.4v1.4h-1.4z M211,332h1.4v1.4h-1.4z M215,332h1.4v1.4h-1.4z M219,332h1.4v1.4h-1.4z M225,332h1.4v1.4h-1.4z M231,332h1.4v1.4h-1.4z M166,333h1.4v1.4h-1.4z M182,333h1.4v1.4h-1.4z M184,333h1.4v1.4h-1.4z M194,333h1.4v1.4h-1.4z M200,333h1.4v1.4h-1.4z M204,333h1.4v1.4h-1.4z M206,333h1.4v1.4h-1.4z M209,333h1.4v1.4h-1.4z M213,333h1.4v1.4h-1.4z M217,333h1.4v1.4h-1.4z M221,333h1.4v1.4h-1.4z M226,333h1.4v1.4h-1.4z M230,333h1.4v1.4h-1.4z M150,334h1.4v1.4h-1.4z M158,334h1.4v1.4h-1.4z M182,334h1.4v1.4h-1.4z M184,334h1.4v1.4h-1.4z M191,334h1.4v1.4h-1.4z M196,334h1.4v1.4h-1.4z M200,334h1.4v1.4h-1.4z M204,334h1.4v1.4h-1.4z M206,334h1.4v1.4h-1.4z M209,334h1.4v1.4h-1.4z M213,334h1.4v1.4h-1.4z M220,334h1.4v1.4h-1.4z M225,334h1.4v1.4h-1.4z M229,334h1.4v1.4h-1.4z M164,335h1.4v1.4h-1.4z M172,335h1.4v1.4h-1.4z M182,335h1.4v1.4h-1.4z M184,335h1.4v1.4h-1.4z M190,335h1.4v1.4h-1.4z M200,335h1.4v1.4h-1.4z M203,335h1.4v1.4h-1.4z M206,335h1.4v1.4h-1.4z M210,335h1.4v1.4h-1.4z M218,335h1.4v1.4h-1.4z M225,335h1.4v1.4h-1.4z M230,335h1.4v1.4h-1.4z M154,336h1.4v1.4h-1.4z M168,336h1.4v1.4h-1.4z M183,336h1.4v1.4h-1.4z M191,336h1.4v1.4h-1.4z M198,336h1.4v1.4h-1.4z M202,336h1.4v1.4h-1.4z M205,336h1.4v1.4h-1.4z M208,336h1.4v1.4h-1.4z M221,336h1.4v1.4h-1.4z M226,336h1.4v1.4h-1.4z M232,336h1.4v1.4h-1.4z M162,337h1.4v1.4h-1.4z M170,337h1.4v1.4h-1.4z M182,337h1.4v1.4h-1.4z M185,337h1.4v1.4h-1.4z M196,337h1.4v1.4h-1.4z M203,337h1.4v1.4h-1.4z M206,337h1.4v1.4h-1.4z M212,337h1.4v1.4h-1.4z M225,337h1.4v1.4h-1.4z M230,337h1.4v1.4h-1.4z M172,338h1.4v1.4h-1.4z M183,338h1.4v1.4h-1.4z M185,338h1.4v1.4h-1.4z M197,338h1.4v1.4h-1.4z M201,338h1.4v1.4h-1.4z M205,338h1.4v1.4h-1.4z M211,338h1.4v1.4h-1.4z M223,338h1.4v1.4h-1.4z M228,338h1.4v1.4h-1.4z M148,339h1.4v1.4h-1.4z M160,339h1.4v1.4h-1.4z M169,339h1.4v1.4h-1.4z M182,339h1.4v1.4h-1.4z M184,339h1.4v1.4h-1.4z M195,339h1.4v1.4h-1.4z M201,339h1.4v1.4h-1.4z M206,339h1.4v1.4h-1.4z M210,339h1.4v1.4h-1.4z M223,339h1.4v1.4h-1.4z M156,340h1.4v1.4h-1.4z M174,340h1.4v1.4h-1.4z M183,340h1.4v1.4h-1.4z M200,340h1.4v1.4h-1.4z M204,340h1.4v1.4h-1.4z M210,340h1.4v1.4h-1.4z M221,340h1.4v1.4h-1.4z M226,340h1.4v1.4h-1.4z M231,340h1.4v1.4h-1.4z M152,341h1.4v1.4h-1.4z M181,341h1.4v1.4h-1.4z M184,341h1.4v1.4h-1.4z M186,341h1.4v1.4h-1.4z M203,341h1.4v1.4h-1.4z M209,341h1.4v1.4h-1.4z M213,341h1.4v1.4h-1.4z M226,341h1.4v1.4h-1.4z M158,342h1.4v1.4h-1.4z M177,342h1.4v1.4h-1.4z M183,342h1.4v1.4h-1.4z M185,342h1.4v1.4h-1.4z M196,342h1.4v1.4h-1.4z M201,342h1.4v1.4h-1.4z M205,342h1.4v1.4h-1.4z M208,342h1.4v1.4h-1.4z M211,342h1.4v1.4h-1.4z M223,342h1.4v1.4h-1.4z M227,342h1.4v1.4h-1.4z M156,343h1.4v1.4h-1.4z M166,343h1.4v1.4h-1.4z M181,343h1.4v1.4h-1.4z M184,343h1.4v1.4h-1.4z M194,343h1.4v1.4h-1.4z M200,343h1.4v1.4h-1.4z M203,343h1.4v1.4h-1.4z M207,343h1.4v1.4h-1.4z M210,343h1.4v1.4h-1.4z M212,343h1.4v1.4h-1.4z M221,343h1.4v1.4h-1.4z M224,343h1.4v1.4h-1.4z M230,343h1.4v1.4h-1.4z M154,344h1.4v1.4h-1.4z M182,344h1.4v1.4h-1.4z M185,344h1.4v1.4h-1.4z M187,344h1.4v1.4h-1.4z M198,344h1.4v1.4h-1.4z M203,344h1.4v1.4h-1.4z M205,344h1.4v1.4h-1.4z M207,344h1.4v1.4h-1.4z M209,344h1.4v1.4h-1.4z M222,344h1.4v1.4h-1.4z M226,344h1.4v1.4h-1.4z M146,345h1.4v1.4h-1.4z M170,345h1.4v1.4h-1.4z M183,345h1.4v1.4h-1.4z M185,345h1.4v1.4h-1.4z M195,345h1.4v1.4h-1.4z M202,345h1.4v1.4h-1.4z M205,345h1.4v1.4h-1.4z M208,345h1.4v1.4h-1.4z M211,345h1.4v1.4h-1.4z M214,345h1.4v1.4h-1.4z M219,345h1.4v1.4h-1.4z M224,345h1.4v1.4h-1.4z M227,345h1.4v1.4h-1.4z M162,346h1.4v1.4h-1.4z M173,346h1.4v1.4h-1.4z M185,346h1.4v1.4h-1.4z M187,346h1.4v1.4h-1.4z M200,346h1.4v1.4h-1.4z M203,346h1.4v1.4h-1.4z M206,346h1.4v1.4h-1.4z M210,346h1.4v1.4h-1.4z M223,346h1.4v1.4h-1.4z M147,347h1.4v1.4h-1.4z M166,347h1.4v1.4h-1.4z M185,347h1.4v1.4h-1.4z M188,347h1.4v1.4h-1.4z M201,347h1.4v1.4h-1.4z M204,347h1.4v1.4h-1.4z M207,347h1.4v1.4h-1.4z M211,347h1.4v1.4h-1.4z M220,347h1.4v1.4h-1.4z M225,347h1.4v1.4h-1.4z M146,348h1.4v1.4h-1.4z M155,348h1.4v1.4h-1.4z M171,348h1.4v1.4h-1.4z M187,348h1.4v1.4h-1.4z M196,348h1.4v1.4h-1.4z M205,348h1.4v1.4h-1.4z M209,348h1.4v1.4h-1.4z M226,348h1.4v1.4h-1.4z M162,349h1.4v1.4h-1.4z M175,349h1.4v1.4h-1.4z M186,349h1.4v1.4h-1.4z M189,349h1.4v1.4h-1.4z M200,349h1.4v1.4h-1.4z M210,349h1.4v1.4h-1.4z M224,349h1.4v1.4h-1.4z M147,350h1.4v1.4h-1.4z M173,350h1.4v1.4h-1.4z M188,350h1.4v1.4h-1.4z M204,350h1.4v1.4h-1.4z M218,350h1.4v1.4h-1.4z M225,350h1.4v1.4h-1.4z M157,351h1.4v1.4h-1.4z M190,351h1.4v1.4h-1.4z M206,351h1.4v1.4h-1.4z M211,351h1.4v1.4h-1.4z M145,352h1.4v1.4h-1.4z M154,352h1.4v1.4h-1.4z M171,352h1.4v1.4h-1.4z M181,352h1.4v1.4h-1.4z M191,352h1.4v1.4h-1.4z M225,352h1.4v1.4h-1.4z M160,353h1.4v1.4h-1.4z M175,353h1.4v1.4h-1.4z M207,353h1.4v1.4h-1.4z M219,353h1.4v1.4h-1.4z M147,354h1.4v1.4h-1.4z M192,354h1.4v1.4h-1.4z M209,354h1.4v1.4h-1.4z M145,355h1.4v1.4h-1.4z M154,355h1.4v1.4h-1.4z M168,355h1.4v1.4h-1.4z M179,355h1.4v1.4h-1.4z M216,355h1.4v1.4h-1.4z M159,356h1.4v1.4h-1.4z M176,356h1.4v1.4h-1.4z M194,356h1.4v1.4h-1.4z M225,356h1.4v1.4h-1.4z M145,357h1.4v1.4h-1.4z M157,357h1.4v1.4h-1.4z M185,357h1.4v1.4h-1.4z M212,357h1.4v1.4h-1.4z M152,358h1.4v1.4h-1.4z M161,358h1.4v1.4h-1.4z M180,358h1.4v1.4h-1.4z M144,359h1.4v1.4h-1.4z M178,359h1.4v1.4h-1.4z M141,360h1.4v1.4h-1.4z M150,360h1.4v1.4h-1.4z M164,360h1.4v1.4h-1.4z M183,360h1.4v1.4h-1.4z M192,360h1.4v1.4h-1.4z M201,360h1.4v1.4h-1.4z M140,361h1.4v1.4h-1.4z M152,361h1.4v1.4h-1.4z M156,361h1.4v1.4h-1.4z M167,361h1.4v1.4h-1.4z M189,361h1.4v1.4h-1.4z M207,361h1.4v1.4h-1.4z M147,362h1.4v1.4h-1.4z M165,362h1.4v1.4h-1.4z M179,362h1.4v1.4h-1.4z M202,362h1.4v1.4h-1.4z M221,362h1.4v1.4h-1.4z M145,363h1.4v1.4h-1.4z M173,363h1.4v1.4h-1.4z M182,363h1.4v1.4h-1.4z M206,363h1.4v1.4h-1.4z M220,363h1.4v1.4h-1.4z M148,364h1.4v1.4h-1.4z M168,364h1.4v1.4h-1.4z M200,364h1.4v1.4h-1.4z M213,364h1.4v1.4h-1.4z M219,364h1.4v1.4h-1.4z M221,364h1.4v1.4h-1.4z M146,365h1.4v1.4h-1.4z M160,365h1.4v1.4h-1.4z M175,365h1.4v1.4h-1.4z M203,365h1.4v1.4h-1.4z M208,365h1.4v1.4h-1.4z M218,365h1.4v1.4h-1.4z M144,366h1.4v1.4h-1.4z M155,366h1.4v1.4h-1.4z M162,366h1.4v1.4h-1.4z M185,366h1.4v1.4h-1.4z M202,366h1.4v1.4h-1.4z M219,366h1.4v1.4h-1.4z M139,367h1.4v1.4h-1.4z M147,367h1.4v1.4h-1.4z M169,367h1.4v1.4h-1.4z M178,367h1.4v1.4h-1.4z M204,367h1.4v1.4h-1.4z M209,367h1.4v1.4h-1.4z M216,367h1.4v1.4h-1.4z M220,367h1.4v1.4h-1.4z M160,368h1.4v1.4h-1.4z M188,368h1.4v1.4h-1.4z M214,368h1.4v1.4h-1.4z M219,368h1.4v1.4h-1.4z M139,369h1.4v1.4h-1.4z M155,369h1.4v1.4h-1.4z M176,369h1.4v1.4h-1.4z M192,369h1.4v1.4h-1.4z M206,369h1.4v1.4h-1.4z M211,369h1.4v1.4h-1.4z M218,369h1.4v1.4h-1.4z M141,370h1.4v1.4h-1.4z M207,370h1.4v1.4h-1.4z M218,370h1.4v1.4h-1.4z M153,371h1.4v1.4h-1.4z M186,371h1.4v1.4h-1.4z M198,371h1.4v1.4h-1.4z M209,371h1.4v1.4h-1.4z M213,371h1.4v1.4h-1.4z M218,371h1.4v1.4h-1.4z M164,372h1.4v1.4h-1.4z M170,372h1.4v1.4h-1.4z M190,372h1.4v1.4h-1.4z M210,372h1.4v1.4h-1.4z M219,372h1.4v1.4h-1.4z M151,373h1.4v1.4h-1.4z M183,373h1.4v1.4h-1.4z M214,373h1.4v1.4h-1.4z M219,373h1.4v1.4h-1.4z M156,374h1.4v1.4h-1.4z M163,374h1.4v1.4h-1.4z M181,374h1.4v1.4h-1.4z M200,374h1.4v1.4h-1.4z M211,374h1.4v1.4h-1.4z M218,374h1.4v1.4h-1.4z M149,375h1.4v1.4h-1.4z M166,375h1.4v1.4h-1.4z M188,375h1.4v1.4h-1.4z M212,375h1.4v1.4h-1.4z M219,375h1.4v1.4h-1.4z M148,376h1.4v1.4h-1.4z M158,376h1.4v1.4h-1.4z M168,376h1.4v1.4h-1.4z M179,376h1.4v1.4h-1.4z M203,376h1.4v1.4h-1.4z M215,376h1.4v1.4h-1.4z M219,376h1.4v1.4h-1.4z M140,377h1.4v1.4h-1.4z M163,377h1.4v1.4h-1.4z M173,377h1.4v1.4h-1.4z M191,377h1.4v1.4h-1.4z M217,377h1.4v1.4h-1.4z M146,378h1.4v1.4h-1.4z M154,378h1.4v1.4h-1.4z M182,378h1.4v1.4h-1.4z M201,378h1.4v1.4h-1.4z M218,378h1.4v1.4h-1.4z M148,379h1.4v1.4h-1.4z M177,379h1.4v1.4h-1.4z M195,379h1.4v1.4h-1.4z M218,379h1.4v1.4h-1.4z M227,379h1.4v1.4h-1.4z M143,380h1.4v1.4h-1.4z M163,380h1.4v1.4h-1.4z M186,380h1.4v1.4h-1.4z M229,380h1.4v1.4h-1.4z M146,381h1.4v1.4h-1.4z M172,381h1.4v1.4h-1.4z M211,381h1.4v1.4h-1.4z M155,382h1.4v1.4h-1.4z M161,382h1.4v1.4h-1.4z M179,382h1.4v1.4h-1.4z M205,382h1.4v1.4h-1.4z M226,382h1.4v1.4h-1.4z M138,383h1.4v1.4h-1.4z M145,383h1.4v1.4h-1.4z M156,383h1.4v1.4h-1.4z M198,383h1.4v1.4h-1.4z M220,383h1.4v1.4h-1.4z M150,384h1.4v1.4h-1.4z M160,384h1.4v1.4h-1.4z M196,384h1.4v1.4h-1.4z M233,384h1.4v1.4h-1.4z M158,385h1.4v1.4h-1.4z M168,385h1.4v1.4h-1.4z M193,385h1.4v1.4h-1.4z M214,385h1.4v1.4h-1.4z M140,386h1.4v1.4h-1.4z M145,386h1.4v1.4h-1.4z M155,386h1.4v1.4h-1.4z M171,386h1.4v1.4h-1.4z M138,387h1.4v1.4h-1.4z M152,387h1.4v1.4h-1.4z M203,387h1.4v1.4h-1.4z M143,388h1.4v1.4h-1.4z M150,388h1.4v1.4h-1.4z M157,388h1.4v1.4h-1.4z M166,388h1.4v1.4h-1.4z M201,388h1.4v1.4h-1.4z M136,389h1.4v1.4h-1.4z M161,389h1.4v1.4h-1.4z M213,389h1.4v1.4h-1.4z M224,389h1.4v1.4h-1.4z M144,390h1.4v1.4h-1.4z M159,390h1.4v1.4h-1.4z M176,390h1.4v1.4h-1.4z M230,390h1.4v1.4h-1.4z M150,391h1.4v1.4h-1.4z M156,391h1.4v1.4h-1.4z M168,391h1.4v1.4h-1.4z M208,391h1.4v1.4h-1.4z M145,392h1.4v1.4h-1.4z M151,392h1.4v1.4h-1.4z M171,392h1.4v1.4h-1.4z M185,392h1.4v1.4h-1.4z M221,392h1.4v1.4h-1.4z M139,393h1.4v1.4h-1.4z M149,393h1.4v1.4h-1.4z M158,393h1.4v1.4h-1.4z M230,393h1.4v1.4h-1.4z M142,394h1.4v1.4h-1.4z M162,394h1.4v1.4h-1.4z M173,394h1.4v1.4h-1.4z M207,394h1.4v1.4h-1.4z M227,394h1.4v1.4h-1.4z M139,395h1.4v1.4h-1.4z M147,395h1.4v1.4h-1.4z M155,395h1.4v1.4h-1.4z M165,395h1.4v1.4h-1.4z M223,395h1.4v1.4h-1.4z M136,396h1.4v1.4h-1.4z M157,396h1.4v1.4h-1.4z M175,396h1.4v1.4h-1.4z M193,396h1.4v1.4h-1.4z M138,397h1.4v1.4h-1.4z M148,397h1.4v1.4h-1.4z M162,397h1.4v1.4h-1.4z M179,397h1.4v1.4h-1.4z M214,397h1.4v1.4h-1.4z M134,398h1.4v1.4h-1.4z M146,398h1.4v1.4h-1.4z M158,398h1.4v1.4h-1.4z M169,398h1.4v1.4h-1.4z M184,398h1.4v1.4h-1.4z M197,398h1.4v1.4h-1.4z M222,398h1.4v1.4h-1.4z M143,399h1.4v1.4h-1.4z M160,399h1.4v1.4h-1.4z M192,399h1.4v1.4h-1.4z M139,400h1.4v1.4h-1.4z M153,400h1.4v1.4h-1.4z M166,400h1.4v1.4h-1.4z M177,400h1.4v1.4h-1.4z M226,400h1.4v1.4h-1.4z M133,401h1.4v1.4h-1.4z M146,401h1.4v1.4h-1.4z M169,401h1.4v1.4h-1.4z M212,401h1.4v1.4h-1.4z M132,402h1.4v1.4h-1.4z M139,402h1.4v1.4h-1.4z M154,402h1.4v1.4h-1.4z M160,402h1.4v1.4h-1.4z M184,402h1.4v1.4h-1.4z M195,402h1.4v1.4h-1.4z M131,403h1.4v1.4h-1.4z M141,403h1.4v1.4h-1.4z M148,403h1.4v1.4h-1.4z M171,403h1.4v1.4h-1.4z M131,404h1.4v1.4h-1.4z M137,404h1.4v1.4h-1.4z M162,404h1.4v1.4h-1.4z M174,404h1.4v1.4h-1.4z M200,404h1.4v1.4h-1.4z M130,405h1.4v1.4h-1.4z M135,405h1.4v1.4h-1.4z M143,405h1.4v1.4h-1.4z M152,405h1.4v1.4h-1.4z M158,405h1.4v1.4h-1.4z M180,405h1.4v1.4h-1.4z M191,405h1.4v1.4h-1.4z M146,406h1.4v1.4h-1.4z M171,406h1.4v1.4h-1.4z M210,406h1.4v1.4h-1.4z M129,407h1.4v1.4h-1.4z M142,407h1.4v1.4h-1.4z M152,407h1.4v1.4h-1.4z M167,407h1.4v1.4h-1.4z M185,407h1.4v1.4h-1.4z M216,407h1.4v1.4h-1.4z M158,408h1.4v1.4h-1.4z M177,408h1.4v1.4h-1.4z M190,408h1.4v1.4h-1.4z M238,408h1.4v1.4h-1.4z M132,409h1.4v1.4h-1.4z M140,409h1.4v1.4h-1.4z M154,409h1.4v1.4h-1.4z M172,409h1.4v1.4h-1.4z M201,409h1.4v1.4h-1.4z M134,410h1.4v1.4h-1.4z M162,410h1.4v1.4h-1.4z M179,410h1.4v1.4h-1.4z M188,410h1.4v1.4h-1.4z M127,411h1.4v1.4h-1.4z M138,411h1.4v1.4h-1.4z M149,411h1.4v1.4h-1.4z M175,411h1.4v1.4h-1.4z M205,411h1.4v1.4h-1.4z M219,411h1.4v1.4h-1.4z M237,411h1.4v1.4h-1.4z M141,412h1.4v1.4h-1.4z M155,412h1.4v1.4h-1.4z M182,412h1.4v1.4h-1.4z M203,412h1.4v1.4h-1.4z M225,412h1.4v1.4h-1.4z M129,413h1.4v1.4h-1.4z M139,413h1.4v1.4h-1.4z M158,413h1.4v1.4h-1.4z M167,413h1.4v1.4h-1.4z M180,413h1.4v1.4h-1.4z M227,413h1.4v1.4h-1.4z M232,413h1.4v1.4h-1.4z M173,414h1.4v1.4h-1.4z M126,415h1.4v1.4h-1.4z M133,415h1.4v1.4h-1.4z M143,415h1.4v1.4h-1.4z M171,415h1.4v1.4h-1.4z M191,415h1.4v1.4h-1.4z M208,415h1.4v1.4h-1.4z M232,415h1.4v1.4h-1.4z M147,416h1.4v1.4h-1.4z M156,416h1.4v1.4h-1.4z M168,416h1.4v1.4h-1.4z M182,416h1.4v1.4h-1.4z M204,416h1.4v1.4h-1.4z M238,416h1.4v1.4h-1.4z M128,417h1.4v1.4h-1.4z M166,417h1.4v1.4h-1.4z M196,417h1.4v1.4h-1.4z M227,417h1.4v1.4h-1.4z M234,417h1.4v1.4h-1.4z M134,418h1.4v1.4h-1.4z M142,418h1.4v1.4h-1.4z M150,418h1.4v1.4h-1.4z M174,418h1.4v1.4h-1.4z M194,418h1.4v1.4h-1.4z M223,418h1.4v1.4h-1.4z M132,419h1.4v1.4h-1.4z M171,419h1.4v1.4h-1.4z M200,419h1.4v1.4h-1.4z M210,419h1.4v1.4h-1.4z M140,420h1.4v1.4h-1.4z M156,420h1.4v1.4h-1.4z M162,420h1.4v1.4h-1.4z M178,420h1.4v1.4h-1.4z M192,420h1.4v1.4h-1.4z M234,420h1.4v1.4h-1.4z M130,421h1.4v1.4h-1.4z M143,421h1.4v1.4h-1.4z M176,421h1.4v1.4h-1.4z M219,421h1.4v1.4h-1.4z M236,421h1.4v1.4h-1.4z M135,422h1.4v1.4h-1.4z M171,422h1.4v1.4h-1.4z M184,422h1.4v1.4h-1.4z M195,422h1.4v1.4h-1.4z M206,422h1.4v1.4h-1.4z M125,423h1.4v1.4h-1.4z M145,423h1.4v1.4h-1.4z M154,423h1.4v1.4h-1.4z M160,423h1.4v1.4h-1.4z M182,423h1.4v1.4h-1.4z M210,423h1.4v1.4h-1.4z M229,423h1.4v1.4h-1.4z M121,424h1.4v1.4h-1.4z M139,424h1.4v1.4h-1.4z M151,424h1.4v1.4h-1.4z M192,424h1.4v1.4h-1.4z M226,424h1.4v1.4h-1.4z M169,425h1.4v1.4h-1.4z M187,425h1.4v1.4h-1.4z M208,425h1.4v1.4h-1.4z M237,425h1.4v1.4h-1.4z M127,426h1.4v1.4h-1.4z M143,426h1.4v1.4h-1.4z M149,426h1.4v1.4h-1.4z M160,426h1.4v1.4h-1.4z M173,426h1.4v1.4h-1.4z M195,426h1.4v1.4h-1.4z M129,427h1.4v1.4h-1.4z M140,427h1.4v1.4h-1.4z M184,427h1.4v1.4h-1.4z M202,427h1.4v1.4h-1.4z M224,427h1.4v1.4h-1.4z M125,428h1.4v1.4h-1.4z M147,428h1.4v1.4h-1.4z M171,428h1.4v1.4h-1.4z M199,428h1.4v1.4h-1.4z M217,428h1.4v1.4h-1.4z M227,428h1.4v1.4h-1.4z M235,428h1.4v1.4h-1.4z M128,429h1.4v1.4h-1.4z M139,429h1.4v1.4h-1.4z M151,429h1.4v1.4h-1.4z M162,429h1.4v1.4h-1.4z M193,429h1.4v1.4h-1.4z M204,429h1.4v1.4h-1.4z M238,429h1.4v1.4h-1.4z M145,430h1.4v1.4h-1.4z M156,430h1.4v1.4h-1.4z M179,430h1.4v1.4h-1.4z M210,430h1.4v1.4h-1.4z M123,431h1.4v1.4h-1.4z M134,431h1.4v1.4h-1.4z M141,431h1.4v1.4h-1.4z M201,431h1.4v1.4h-1.4z M220,431h1.4v1.4h-1.4z M237,431h1.4v1.4h-1.4z M129,432h1.4v1.4h-1.4z M161,432h1.4v1.4h-1.4z M167,432h1.4v1.4h-1.4z M190,432h1.4v1.4h-1.4z M199,432h1.4v1.4h-1.4z M232,432h1.4v1.4h-1.4z M126,433h1.4v1.4h-1.4z M143,433h1.4v1.4h-1.4z M177,433h1.4v1.4h-1.4z M209,433h1.4v1.4h-1.4z M238,433h1.4v1.4h-1.4z M134,434h1.4v1.4h-1.4z M146,434h1.4v1.4h-1.4z M156,434h1.4v1.4h-1.4z M181,434h1.4v1.4h-1.4z M213,434h1.4v1.4h-1.4z M222,434h1.4v1.4h-1.4z M236,434h1.4v1.4h-1.4z M124,435h1.4v1.4h-1.4z M144,435h1.4v1.4h-1.4z M169,435h1.4v1.4h-1.4z M197,435h1.4v1.4h-1.4z M205,435h1.4v1.4h-1.4z M220,435h1.4v1.4h-1.4z M118,436h1.4v1.4h-1.4z M163,436h1.4v1.4h-1.4z M175,436h1.4v1.4h-1.4z M190,436h1.4v1.4h-1.4z M234,436h1.4v1.4h-1.4z M126,437h1.4v1.4h-1.4z M132,437h1.4v1.4h-1.4z M138,437h1.4v1.4h-1.4z M148,437h1.4v1.4h-1.4z M185,437h1.4v1.4h-1.4z M207,437h1.4v1.4h-1.4z M227,437h1.4v1.4h-1.4z M239,437h1.4v1.4h-1.4z M158,438h1.4v1.4h-1.4z M193,438h1.4v1.4h-1.4z M116,439h1.4v1.4h-1.4z M124,439h1.4v1.4h-1.4z M141,439h1.4v1.4h-1.4z M150,439h1.4v1.4h-1.4z M170,439h1.4v1.4h-1.4z M188,439h1.4v1.4h-1.4z M199,439h1.4v1.4h-1.4z M215,439h1.4v1.4h-1.4z M235,439h1.4v1.4h-1.4z M127,440h1.4v1.4h-1.4z M136,440h1.4v1.4h-1.4z M161,440h1.4v1.4h-1.4z M175,440h1.4v1.4h-1.4z M203,440h1.4v1.4h-1.4z M228,440h1.4v1.4h-1.4z M123,441h1.4v1.4h-1.4z M144,441h1.4v1.4h-1.4z M207,441h1.4v1.4h-1.4z M235,441h1.4v1.4h-1.4z M116,442h1.4v1.4h-1.4z M120,442h1.4v1.4h-1.4z M129,442h1.4v1.4h-1.4z M150,442h1.4v1.4h-1.4z M159,442h1.4v1.4h-1.4z M190,442h1.4v1.4h-1.4z M201,442h1.4v1.4h-1.4z M224,442h1.4v1.4h-1.4z M123,443h1.4v1.4h-1.4z M137,443h1.4v1.4h-1.4z M153,443h1.4v1.4h-1.4z M170,443h1.4v1.4h-1.4z M183,443h1.4v1.4h-1.4z M205,443h1.4v1.4h-1.4z M219,443h1.4v1.4h-1.4z M236,443h1.4v1.4h-1.4z M115,444h1.4v1.4h-1.4z M180,444h1.4v1.4h-1.4z M121,445h1.4v1.4h-1.4z M148,445h1.4v1.4h-1.4z M190,445h1.4v1.4h-1.4z M203,445h1.4v1.4h-1.4z M220,445h1.4v1.4h-1.4z M114,446h1.4v1.4h-1.4z M139,446h1.4v1.4h-1.4z M161,446h1.4v1.4h-1.4z M172,446h1.4v1.4h-1.4z M187,446h1.4v1.4h-1.4z M208,446h1.4v1.4h-1.4z M218,446h1.4v1.4h-1.4z M236,446h1.4v1.4h-1.4z M126,447h1.4v1.4h-1.4z M154,447h1.4v1.4h-1.4z M183,447h1.4v1.4h-1.4z M229,447h1.4v1.4h-1.4z M129,448h1.4v1.4h-1.4z M181,448h1.4v1.4h-1.4z M206,448h1.4v1.4h-1.4z M114,449h1.4v1.4h-1.4z M133,449h1.4v1.4h-1.4z M166,449h1.4v1.4h-1.4z M195,449h1.4v1.4h-1.4z M209,449h1.4v1.4h-1.4z M226,449h1.4v1.4h-1.4z M238,449h1.4v1.4h-1.4z M121,450h1.4v1.4h-1.4z M151,450h1.4v1.4h-1.4z M164,450h1.4v1.4h-1.4z M175,450h1.4v1.4h-1.4z M186,450h1.4v1.4h-1.4z M118,451h1.4v1.4h-1.4z M136,451h1.4v1.4h-1.4z M198,451h1.4v1.4h-1.4z M222,451h1.4v1.4h-1.4z M237,451h1.4v1.4h-1.4z M124,452h1.4v1.4h-1.4z M130,452h1.4v1.4h-1.4z M157,452h1.4v1.4h-1.4z M204,452h1.4v1.4h-1.4z M215,452h1.4v1.4h-1.4z M116,453h1.4v1.4h-1.4z M121,453h1.4v1.4h-1.4z M133,453h1.4v1.4h-1.4z M150,453h1.4v1.4h-1.4z M162,453h1.4v1.4h-1.4z M173,453h1.4v1.4h-1.4z M196,453h1.4v1.4h-1.4z M210,453h1.4v1.4h-1.4z M242,453h1.4v1.4h-1.4z M124,454h1.4v1.4h-1.4z M132,454h1.4v1.4h-1.4z M178,454h1.4v1.4h-1.4z M222,454h1.4v1.4h-1.4z M238,454h1.4v1.4h-1.4z M129,455h1.4v1.4h-1.4z M182,455h1.4v1.4h-1.4z M194,455h1.4v1.4h-1.4z M217,455h1.4v1.4h-1.4z M115,456h1.4v1.4h-1.4z M121,456h1.4v1.4h-1.4z M135,456h1.4v1.4h-1.4z M140,456h1.4v1.4h-1.4z M170,456h1.4v1.4h-1.4z M215,456h1.4v1.4h-1.4z M234,456h1.4v1.4h-1.4z M124,457h1.4v1.4h-1.4z M133,457h1.4v1.4h-1.4z M158,457h1.4v1.4h-1.4z M211,457h1.4v1.4h-1.4z M243,457h1.4v1.4h-1.4z M117,458h1.4v1.4h-1.4z M138,458h1.4v1.4h-1.4z M142,458h1.4v1.4h-1.4z M174,458h1.4v1.4h-1.4z M192,458h1.4v1.4h-1.4z M219,458h1.4v1.4h-1.4z M115,459h1.4v1.4h-1.4z M135,459h1.4v1.4h-1.4z M152,459h1.4v1.4h-1.4z M169,459h1.4v1.4h-1.4z M187,459h1.4v1.4h-1.4z M226,459h1.4v1.4h-1.4z M236,459h1.4v1.4h-1.4z M126,460h1.4v1.4h-1.4z M144,460h1.4v1.4h-1.4z M207,460h1.4v1.4h-1.4z M240,460h1.4v1.4h-1.4z M142,461h1.4v1.4h-1.4z M167,461h1.4v1.4h-1.4z M217,461h1.4v1.4h-1.4z M234,461h1.4v1.4h-1.4z M123,462h1.4v1.4h-1.4z M137,462h1.4v1.4h-1.4z M190,462h1.4v1.4h-1.4z M203,462h1.4v1.4h-1.4z M244,462h1.4v1.4h-1.4z M117,463h1.4v1.4h-1.4z M142,463h1.4v1.4h-1.4z M157,463h1.4v1.4h-1.4z M171,463h1.4v1.4h-1.4z M179,463h1.4v1.4h-1.4z M199,463h1.4v1.4h-1.4z M241,463h1.4v1.4h-1.4z M126,464h1.4v1.4h-1.4z M153,464h1.4v1.4h-1.4z M206,464h1.4v1.4h-1.4z M216,464h1.4v1.4h-1.4z M224,464h1.4v1.4h-1.4z M112,465h1.4v1.4h-1.4z M123,465h1.4v1.4h-1.4z M145,465h1.4v1.4h-1.4z M202,465h1.4v1.4h-1.4z M233,465h1.4v1.4h-1.4z M116,466h1.4v1.4h-1.4z M161,466h1.4v1.4h-1.4z M240,466h1.4v1.4h-1.4z M119,467h1.4v1.4h-1.4z M132,467h1.4v1.4h-1.4z M171,467h1.4v1.4h-1.4z M189,467h1.4v1.4h-1.4z M226,467h1.4v1.4h-1.4z M245,467h1.4v1.4h-1.4z M121,468h1.4v1.4h-1.4z M127,468h1.4v1.4h-1.4z M143,468h1.4v1.4h-1.4z M195,468h1.4v1.4h-1.4z M205,468h1.4v1.4h-1.4z M213,468h1.4v1.4h-1.4z M232,468h1.4v1.4h-1.4z M116,469h1.4v1.4h-1.4z M175,469h1.4v1.4h-1.4z M113,470h1.4v1.4h-1.4z M163,470h1.4v1.4h-1.4z M203,470h1.4v1.4h-1.4z M224,470h1.4v1.4h-1.4z M110,471h1.4v1.4h-1.4z M148,471h1.4v1.4h-1.4z M184,471h1.4v1.4h-1.4z M198,471h1.4v1.4h-1.4z M232,471h1.4v1.4h-1.4z M155,472h1.4v1.4h-1.4z M207,472h1.4v1.4h-1.4z M236,472h1.4v1.4h-1.4z M110,473h1.4v1.4h-1.4z M133,473h1.4v1.4h-1.4z M153,473h1.4v1.4h-1.4z M181,473h1.4v1.4h-1.4z M210,473h1.4v1.4h-1.4z M243,473h1.4v1.4h-1.4z M137,474h1.4v1.4h-1.4z M151,474h1.4v1.4h-1.4z M109,475h1.4v1.4h-1.4z M130,475h1.4v1.4h-1.4z M165,475h1.4v1.4h-1.4z M197,475h1.4v1.4h-1.4z M220,475h1.4v1.4h-1.4z M227,475h1.4v1.4h-1.4z M238,475h1.4v1.4h-1.4z M117,476h1.4v1.4h-1.4z M134,476h1.4v1.4h-1.4z M176,476h1.4v1.4h-1.4z M191,476h1.4v1.4h-1.4z M214,476h1.4v1.4h-1.4z M149,477h1.4v1.4h-1.4z M208,477h1.4v1.4h-1.4z M113,478h1.4v1.4h-1.4z M127,478h1.4v1.4h-1.4z M138,478h1.4v1.4h-1.4z M169,478h1.4v1.4h-1.4z M236,478h1.4v1.4h-1.4z M111,479h1.4v1.4h-1.4z M130,479h1.4v1.4h-1.4z M154,479h1.4v1.4h-1.4z M167,479h1.4v1.4h-1.4z M185,479h1.4v1.4h-1.4z M224,479h1.4v1.4h-1.4z M233,479h1.4v1.4h-1.4z " fill="#7C3AED" shape-rendering="crispEdges"/>
  </g>

  <!-- Right Panel: SYSTEM.INFO Readout -->
  <rect x="360" y="65" width="795" height="520" rx="8" fill="#FFFFFF" stroke="#E2E8F0" stroke-width="1.5"/>
  <text x="390" y="105" font-family="monospace" font-size="14" fill="#0891B2" font-weight="bold">SYSTEM.INFO</text>
  <rect x="390" y="120" width="140" height="22" rx="4" fill="#0891B2" fill-opacity="0.15"/>
  <text x="400" y="136" font-family="monospace" font-size="12" fill="#0891B2" font-weight="bold">@luisv-lima</text>
  
  <line x1="390" y1="155" x2="1120" y2="155" stroke="#E2E8F0" stroke-dasharray="4 4"/>
  
  <!-- Info Text Rows -->
  
        <text x="390" y="175" font-family="monospace" font-size="13" fill="#0891B2">Subject <tspan fill="#475569">........</tspan> <tspan fill="#F8FAFC">Luís Vinícius Oliveira Lima</tspan></text>
        
        <text x="390" y="200" font-family="monospace" font-size="13" fill="#0891B2">Role <tspan fill="#475569">..</tspan> <tspan fill="#F8FAFC">Back-End Developer & AI / Automation</tspan></text>
        
        <text x="390" y="225" font-family="monospace" font-size="13" fill="#0891B2">Origin <tspan fill="#475569">..............................</tspan> <tspan fill="#F8FAFC">Brazil</tspan></text>
        
        <text x="390" y="250" font-family="monospace" font-size="13" fill="#0891B2">Education <tspan fill="#475569">.............</tspan> <tspan fill="#F8FAFC">Software Engineering</tspan></text>
        
        <text x="390" y="275" font-family="monospace" font-size="13" fill="#0891B2">Status <tspan fill="#475569">.................</tspan> <tspan fill="#F8FAFC">Learning & Building</tspan></text>
        
        <text x="390" y="300" font-family="monospace" font-size="13" fill="#0891B2">ToolChain <tspan fill="#475569">............</tspan> <tspan fill="#F8FAFC">Git, VS Code, Postman</tspan></text>
        
        <text x="390" y="325" font-family="monospace" font-size="13" fill="#0891B2">Core.Lang <tspan fill="#475569">.......................</tspan> <tspan fill="#F8FAFC">Go, Python</tspan></text>
        
        <text x="390" y="350" font-family="monospace" font-size="13" fill="#0891B2">Core.Frontend <tspan fill="#475569">..................</tspan> <tspan fill="#F8FAFC">HTML5, CSS3</tspan></text>
        
        <text x="390" y="375" font-family="monospace" font-size="13" fill="#0891B2">Core.Backend <tspan fill="#475569">..</tspan> <tspan fill="#F8FAFC">Go (Golang), Node.js, FastAPI, REST</tspan></text>
        
        <text x="390" y="400" font-family="monospace" font-size="13" fill="#0891B2">Core.Database <tspan fill="#475569">............</tspan> <tspan fill="#F8FAFC">PostgreSQL, MySQL</tspan></text>
        
        <text x="390" y="425" font-family="monospace" font-size="13" fill="#0891B2">Core.Infra <tspan fill="#475569">..</tspan> <tspan fill="#F8FAFC">Docker, OpenAI API, Make, GitHub Actions</tspan></text>
        
        <text x="390" y="450" font-family="monospace" font-size="13" fill="#0891B2">Grid.Mail <tspan fill="#475569">...........</tspan> <tspan fill="#F8FAFC">dev.luislima@gmail.com</tspan></text>
        
        <text x="390" y="475" font-family="monospace" font-size="13" fill="#0891B2">Grid.LinkedIn <tspan fill="#475569">................</tspan> <tspan fill="#F8FAFC">in/luisv-lima</tspan></text>
        
        <text x="390" y="500" font-family="monospace" font-size="13" fill="#0891B2">Grid.GitHub <tspan fill="#475569">.....................</tspan> <tspan fill="#F8FAFC">luisv-lima</tspan></text>
        

  <line x1="390" y1="525" x2="1120" y2="525" stroke="#E2E8F0" stroke-dasharray="4 4"/>
  <text x="390" y="555" font-family="monospace" font-size="11" fill="#10B981">✔ System Operational</text>
  <text x="960" y="555" font-family="monospace" font-size="11" fill="#475569">UTF-8 // Linux x86_64</text>
</svg>
